<svg width="331" height="154" viewBox="0 0 331 154" fill="none" xmlns="http://www.w3.org/2000/svg">
<path d="M86.7764 110.209L128.118 83.5487C128.73 83.151 131.265 87.0813 130.648 87.4739L89.3112 114.139C88.6948 114.536 86.1641 110.603 86.7764 110.209Z" fill="#39223F"/>
<path d="M128.651 84.3076L87.2812 110.989L88.1753 112.379L129.548 85.694L128.651 84.3076Z" fill="#5F4F61"/>
<path d="M134.382 83.493L133.965 82.846L133.286 81.7892C133.21 81.6692 133.107 81.5817 133.004 81.4983C132.571 81.1454 131.951 81.0731 131.454 81.3956L128.148 83.5286L128.65 84.3077L129.547 85.6941L130.684 87.4548L133.99 85.3208C134.605 84.9271 134.78 84.1053 134.382 83.493ZM88.1739 112.379L87.2798 110.989L86.7753 110.21L83.3028 112.45C82.8054 112.769 82.6111 113.361 82.7576 113.901C82.7942 114.032 82.8298 114.163 82.9051 114.278L83.5886 115.335L84.0056 115.983C84.4033 116.598 85.2211 116.773 85.8334 116.375L89.3101 114.139L88.1739 112.379Z" fill="#DAC9DB"/>
<path d="M129.547 85.6938L133.965 82.8458L133.286 81.789C133.211 81.669 133.107 81.5815 133.004 81.498L128.65 84.3074L129.547 85.6938ZM87.2801 110.988L82.7578 113.905C82.7944 114.032 82.83 114.163 82.9053 114.282L83.5888 115.335L88.1742 112.379L87.2801 110.988Z" fill="white"/>
<path d="M123.616 97.9278L125.774 97.6216L127.165 94.9435C127.347 94.5895 127.745 94.4034 128.134 94.4868C128.524 94.5702 128.809 94.9038 128.829 95.3015L128.993 98.3174L130.827 99.4851C131.138 99.6834 131.292 100.054 131.217 100.415C131.138 100.776 130.844 101.05 130.479 101.102L128.332 101.409L126.878 104.364C126.7 104.725 126.294 104.925 125.901 104.837C125.504 104.754 125.218 104.408 125.206 104.002L125.095 100.709L123.271 99.5481C122.957 99.3498 122.802 98.9765 122.881 98.6144C122.957 98.2574 123.251 97.9827 123.616 97.9278ZM104.394 80.7389L108.041 80.2192L110.02 77.1118C110.346 76.595 110.961 76.3408 111.557 76.4679C112.158 76.5991 112.61 77.0843 112.698 77.6915L113.219 81.335L116.325 83.3144C116.842 83.6439 117.096 84.2593 116.969 84.8554C116.838 85.4555 116.353 85.9081 115.745 85.9956L112.102 86.5164L110.123 89.6238C109.794 90.1394 109.177 90.3938 108.581 90.2666C107.981 90.1364 107.529 89.6512 107.441 89.043L106.92 85.3955L103.814 83.4171C103.297 83.0916 103.043 82.4752 103.17 81.8791C103.301 81.2801 103.789 80.8264 104.394 80.7389ZM115.813 104.177L117.748 103.904L118.793 102.259C118.967 101.984 119.293 101.849 119.611 101.917C119.926 101.984 120.168 102.243 120.211 102.564L120.489 104.496L122.134 105.544C122.409 105.719 122.544 106.045 122.476 106.359C122.409 106.676 122.15 106.915 121.829 106.963L119.897 107.237L118.848 108.882C118.674 109.156 118.348 109.291 118.034 109.223C117.716 109.156 117.477 108.898 117.43 108.575L117.152 106.645L115.507 105.596C115.233 105.425 115.097 105.099 115.169 104.781C115.237 104.463 115.495 104.225 115.813 104.177Z" fill="#FF8856"/>
<path d="M89.0689 94.5312C90.141 98.8338 91.4917 102.998 94.5991 106.383C96.5378 108.617 100.631 108.048 102.553 105.747C102.888 108.532 100.714 110.964 96.7209 111.398C92.696 111.831 85.3095 109.399 78.46 100.566L89.0689 94.5312Z" fill="#DAC9DB"/>
<path d="M94.5986 106.383C91.5075 102.998 90.1404 98.8338 89.0684 94.5312L91.2572 93.2832C94.5508 98.2662 100.816 101.297 102.1 104.214C102.335 104.73 102.469 105.247 102.538 105.747C100.63 108.048 96.5373 108.617 94.5986 106.383Z" fill="white"/>
<path d="M90.7725 93.6165C91.3249 94.4995 91.9606 95.3335 92.6644 96.0801C93.348 96.847 94.0824 97.5662 94.8341 98.2659C96.3395 99.632 97.9608 100.864 99.4112 102.183C99.7642 102.514 100.114 102.847 100.431 103.196C100.75 103.546 101.032 103.9 101.235 104.25C101.282 104.333 101.318 104.432 101.365 104.515C101.417 104.615 101.449 104.715 101.485 104.813C101.552 105.016 101.619 105.215 101.667 105.43C101.751 105.847 101.786 106.264 101.735 106.666C101.652 107.479 101.282 108.246 100.698 108.846C100.114 109.447 99.3278 109.899 98.4775 110.182C97.6231 110.464 96.6893 110.614 95.7871 110.614C94.8696 110.63 93.9318 110.464 92.9981 110.249L92.3105 110.062L91.627 109.847L91.2934 109.732L90.9597 109.597L90.2884 109.332C90.0738 109.248 89.8551 109.132 89.6364 109.029C89.4218 108.93 89.2031 108.83 88.9854 108.715L88.3527 108.365L88.0354 108.198L87.8686 108.115L87.717 108.016C86.0448 107.014 84.4753 105.831 83.0209 104.5C81.5673 103.181 80.2318 101.714 78.9604 100.197V100.181C78.7457 99.93 78.3765 99.8985 78.1263 100.098C77.8761 100.3 77.8435 100.665 78.0266 100.916C79.2462 102.549 80.5817 104.098 82.0515 105.533L83.1877 106.582L84.3757 107.563C84.7774 107.881 85.2108 108.183 85.6115 108.481C85.8098 108.632 86.0448 108.763 86.2473 108.914L86.8992 109.332C88.6508 110.432 90.5742 111.298 92.6289 111.831C93.6654 112.081 94.7181 112.263 95.8034 112.263C96.908 112.263 97.976 112.096 99.0451 111.747C100.098 111.397 101.115 110.829 101.917 109.978C102.736 109.148 103.305 108.016 103.404 106.816C103.472 106.216 103.404 105.632 103.289 105.064C103.221 104.782 103.138 104.515 103.038 104.23C102.987 104.098 102.939 103.963 102.872 103.832C102.803 103.698 102.736 103.546 102.653 103.431C102.355 102.914 102.001 102.497 101.636 102.1C101.267 101.714 100.881 101.349 100.483 101.015C99.6971 100.332 98.9098 99.7164 98.1276 99.0807C97.3403 98.4643 96.5734 97.8326 95.8186 97.1807C94.3173 95.898 92.9147 94.5147 91.8101 92.9341C91.627 92.6675 91.2415 92.5994 90.976 92.7825C90.6739 92.9808 90.6058 93.3511 90.7725 93.6165Z" fill="#775E82"/>
<path d="M98.5606 60.3023C99.9307 61.0215 98.3938 62.8015 97.4916 63.0873C95.6871 63.6874 93.9468 64.434 92.2431 65.1847C92.8107 66.0706 93.5298 66.8019 94.6507 67.0684C98.8108 67.5526 102.553 65.3514 105.26 62.0182C106.312 60.6197 106.963 58.9037 107.198 57.1196C107.599 57.6516 107.849 58.1205 107.882 58.4857C108.116 61.2869 105.529 68.5341 91.4599 72.917H91.3602C89.0207 73.4175 89.5527 70.6681 89.0207 68.1527C88.385 65.1368 87.0495 60.52 85.3447 57.4207L87.1136 56.5348C86.899 56.5195 86.664 56.488 86.4301 56.4717C90.5221 56.3883 94.6344 58.0849 98.5606 60.3023Z" fill="#752B0B"/>
<path d="M28.3532 73.5681C28.2342 75.0348 27.6188 77.1007 27.7857 78.4993C27.8528 79.0994 27.034 81.0025 27.1336 81.567C26.2162 81.4673 24.9956 79.8185 24.0741 79.5368C23.3905 79.318 22.6561 79.0994 21.9045 78.8532C17.9955 77.5696 13.5485 75.6187 12.6992 71.1523C17.2764 72.1024 23.657 73.1836 28.3532 73.5681Z" fill="#752B0B"/>
<path d="M4.96191 70.167C7.48549 77.6838 16.1028 82.917 27.3312 82.4318C27.1644 81.733 26.9975 80.9346 26.847 80.068C25.9285 79.9683 24.9948 79.8015 24.0732 79.5157C23.3897 79.301 22.6553 79.0824 21.9036 78.8322C15.2687 78.884 8.66946 75.9831 4.96191 70.167Z" fill="#752B0B"/>
<path d="M38.6592 103.232C36.2872 106.947 33.4819 110.13 30.1049 112.879C22.9208 119.045 13.8976 120.214 5.71254 124.211C5.34332 124.397 4.99342 124.596 4.64453 124.795C4.97815 124.529 5.32704 124.247 5.69728 123.945C9.88898 120.512 13.5477 116.697 16.6236 112.346C17.5929 113.014 18.8603 113.494 20.4135 113.661C24.359 114.079 31.8931 111.731 38.6592 103.232Z" fill="#DAC9DB"/>
<path d="M30.4075 78.8002C29.5216 78.9151 28.6356 78.9833 27.7334 79.0341C28.7546 68.4019 31.3768 43.387 58.4942 41.9518C69.0197 41.4035 79.0437 46.2869 84.7255 55.6203C86.0804 57.8377 87.1138 60.2016 87.9316 62.717C79.6276 59.7845 70.0724 60.5667 62.0186 64.0515C52.8286 68.053 44.8104 74.0522 35.4536 77.5491C33.8007 78.1848 32.1112 78.5663 30.4075 78.8002Z" fill="#DAC9DB"/>
<path d="M27.5814 80.6164C27.6333 80.1363 27.6852 79.5992 27.733 79.0347C28.6352 78.9991 29.5211 78.9157 30.4071 78.8008C29.4052 84.6016 27.733 90.498 24.709 95.532C26.0638 91.0147 27.0138 86.0683 27.5814 80.6164Z" fill="#DAC9DB"/>
<path d="M4.64492 124.795C4.99381 124.581 5.34371 124.398 5.71293 124.212C13.898 120.214 22.9211 119.045 30.1053 112.879C33.4822 110.13 36.2875 106.947 38.6596 103.233C38.8782 102.898 39.0807 102.565 39.2953 102.216C39.0969 102.565 38.8782 102.898 38.6596 103.233C31.8935 111.731 24.3594 114.08 20.3986 113.646C18.8454 113.48 17.574 113.015 16.6077 112.331C19.9968 107.515 22.6872 102.064 24.6096 95.7669C24.6259 95.6835 24.6574 95.6001 24.6778 95.5167C27.7018 90.4818 29.3699 84.6016 30.3748 78.7845C32.0796 78.5668 33.764 78.1691 35.4209 77.5334C44.7747 74.0334 52.7959 68.0332 61.9869 64.0358C70.0408 60.552 79.5959 59.7688 87.9 62.7013C90.7571 71.4498 90.8406 82.0506 91.2098 94.5982C91.7102 111.763 92.2626 116.598 94.718 126.595C95.8541 131.196 96.8245 132.662 95.8867 135.094C93.2126 142.095 86.5288 144.093 79.2938 143.311C77.4223 143.112 75.5711 143.859 73.314 145.945C66.4645 152.278 60.449 153.776 52.2599 150.943C46.9473 149.111 46.9158 146.112 43.2408 147.276C35.0202 149.895 28.5043 150.927 23.1876 146.612C18.6776 142.946 21.018 140.211 18.344 140.445C8.4033 141.296 2.72148 135.813 1.46938 131.447C0.631231 128.347 2.13764 126.861 4.64492 124.795Z" fill="white"/>
<path d="M44.5749 148.011C45.1273 147.959 45.5606 148.043 46.1129 148.377C46.6652 148.695 47.249 149.176 47.8848 149.612C49.1521 150.511 50.6067 151.226 52.0764 151.711C53.531 152.176 55.017 152.576 56.5387 152.811C58.0604 153.026 59.6298 153.109 61.1841 152.962L61.7679 152.895C61.9703 152.878 62.1534 152.859 62.3517 152.811L63.5042 152.593L64.6241 152.278C64.8112 152.227 64.9943 152.159 65.1764 152.092L65.7287 151.893C67.1832 151.329 68.5503 150.61 69.837 149.76C70.0038 149.66 70.1553 149.545 70.3221 149.446L71.2599 148.778C71.4105 148.659 71.558 148.543 71.7085 148.428L72.6107 147.73L73.4804 146.994L74.3155 146.279C74.5851 146.044 74.8678 145.846 75.1536 145.643C75.7182 145.246 76.3061 144.912 76.8899 144.678C77.4066 144.479 77.6568 143.895 77.4585 143.378C77.2551 142.861 76.6712 142.611 76.1545 142.811C76.1393 142.826 76.1026 142.826 76.0874 142.846C75.3204 143.211 74.6328 143.661 74.0175 144.161C73.6991 144.412 73.397 144.662 73.1112 144.928L72.2924 145.695L71.4939 146.426L70.6558 147.129C70.5246 147.244 70.3893 147.359 70.2387 147.479L69.8054 147.793L69.3721 148.111C69.2216 148.226 69.0863 148.329 68.9358 148.428L68.0336 149.029C67.7314 149.212 67.4171 149.378 67.0998 149.56C66.9482 149.644 66.7977 149.744 66.6309 149.812L66.1457 150.046L65.6615 150.277L65.5466 150.327L65.4266 150.375L65.1764 150.479L64.6759 150.661C64.5091 150.729 64.3423 150.792 64.1755 150.829L63.1543 151.126L62.1168 151.329C61.95 151.377 61.7679 151.377 61.6011 151.392L61.0681 151.461C59.6613 151.575 58.2272 151.511 56.8052 151.294C55.4025 151.042 53.9999 150.661 52.6288 150.177C51.9615 149.927 51.3095 149.66 50.7063 149.327C50.0899 148.993 49.5061 148.611 48.9538 148.194C48.3852 147.761 47.8339 147.276 47.13 146.796L46.9988 146.712L46.8483 146.629C46.7486 146.577 46.6459 146.509 46.5462 146.462C46.3316 146.363 46.1129 146.259 45.8789 146.196C45.763 146.16 45.644 146.112 45.529 146.096L45.1598 146.044C45.0438 146.029 44.9248 146.029 44.7936 146.029H44.4244C43.8721 146.029 43.4235 146.462 43.4072 147.01C43.4072 147.563 43.8405 148.011 44.3929 148.028C44.4244 148.028 44.46 148.028 44.4915 148.028L44.5749 148.011Z" fill="#222E6A"/>
<path d="M18.8609 141.442C18.9128 141.442 18.9128 141.442 18.8965 141.426C18.8772 141.411 18.8772 141.395 18.9128 141.442C18.9443 141.494 18.9962 141.593 19.0277 141.709C19.0796 141.828 19.1111 141.978 19.163 142.126C19.3461 142.726 19.58 143.41 19.9137 144.025C20.232 144.644 20.6491 145.209 21.1017 145.726C21.5513 146.242 22.0355 146.691 22.5562 147.108C23.5734 147.943 24.7096 148.642 25.9291 149.175C26.5496 149.425 27.165 149.659 27.8007 149.826C28.4364 149.993 29.0884 150.108 29.7394 150.192C31.0434 150.359 32.3463 150.359 33.6341 150.259C34.2851 150.207 34.9167 150.144 35.5524 150.044C36.1881 149.941 36.8239 149.842 37.4402 149.726C38.6954 149.476 39.9312 149.175 41.1508 148.86C41.7713 148.709 42.3704 148.542 42.9705 148.375C43.2726 148.292 43.591 148.193 43.8412 148.141C44.1067 148.094 44.3579 148.058 44.5756 148.042C45.1279 148.026 45.5775 147.577 45.5612 147.025C45.5459 146.476 45.0923 146.028 44.5441 146.043C44.5084 146.043 44.4922 146.043 44.4606 146.043H44.4413C44.0599 146.076 43.6896 146.174 43.3408 146.278C42.9705 146.393 42.7203 146.493 42.4223 146.591C41.8344 146.795 41.2505 146.993 40.6667 147.176C39.4979 147.541 38.3099 147.875 37.1066 148.141C34.7346 148.677 32.2945 148.975 29.9387 148.694C29.3549 148.61 28.77 148.511 28.2025 148.36C27.6339 148.208 27.0815 148.01 26.5496 147.776C25.4805 147.291 24.4909 146.659 23.609 145.892C23.1716 145.511 22.7546 145.094 22.3894 144.661C22.0355 144.227 21.7181 143.758 21.5035 143.258C21.2685 142.762 21.118 142.261 20.9827 141.661C20.9511 141.51 20.8993 141.343 20.8515 141.176C20.7996 140.994 20.7325 140.811 20.6175 140.576C20.4985 140.361 20.3154 140.075 20.0327 139.877C19.7631 139.679 19.4651 139.579 19.1945 139.512H19.163C18.627 139.392 18.094 139.742 17.975 140.294C17.86 140.826 18.2099 141.359 18.7612 141.478C18.7938 141.426 18.8294 141.426 18.8609 141.442Z" fill="#222E6A"/>
<path d="M58.4419 40.9556C56.9884 41.0552 55.5532 41.2058 54.115 41.4367C52.6808 41.6706 51.2588 41.989 49.8561 42.406C47.0671 43.236 44.3574 44.4556 41.9376 46.0891C39.5137 47.7217 37.3401 49.7367 35.5682 52.0527C34.6863 53.2052 33.8675 54.4207 33.1484 55.6687C32.4292 56.9198 31.7935 58.2197 31.2249 59.5542C30.1051 62.2008 29.2547 64.9696 28.619 67.7667C27.9833 70.568 27.5662 73.3855 27.2479 76.2183C27.0973 77.6331 26.9661 79.051 26.8308 80.4496L26.5806 82.5317L26.4453 83.5845C26.4138 83.9344 26.3619 84.2843 26.2989 84.6179L25.9612 86.6838L25.7944 87.7172L25.5797 88.7496L25.1423 90.8002L25.0946 91.0504L24.8921 91.8011L24.6257 92.8141L24.3591 93.8313C24.3083 93.9981 24.2757 94.1649 24.2249 94.3327L24.0733 94.8332L23.458 96.8319C23.4061 96.9987 23.3542 97.1655 23.3064 97.3323L23.1243 97.8165L22.7541 98.7981L22.3889 99.7837C22.3208 99.9505 22.2699 100.113 22.2018 100.265L22.0034 100.749L21.1846 102.664C21.0493 102.982 20.8988 103.3 20.732 103.614L20.2631 104.548L19.7982 105.481C19.7311 105.632 19.6314 105.799 19.548 105.947L19.2978 106.399L18.2766 108.231L17.1557 109.999L16.8739 110.448L16.7386 110.662L16.5881 110.881L15.3879 112.581L15.0858 113.015L14.7684 113.432L13.4644 115.064C13.3658 115.196 13.2467 115.331 13.1308 115.462L12.7819 115.864L12.0943 116.646C11.8594 116.913 11.6447 117.178 11.4108 117.429L9.94101 118.931C9.69078 119.181 9.45583 119.431 9.20558 119.662L7.66766 121.096C7.53236 121.211 7.41743 121.331 7.28217 121.446L6.88139 121.78L5.27632 123.147C5.00983 123.381 4.72809 123.595 4.45753 123.814C3.90928 124.263 3.35696 124.712 2.80465 125.213C2.25233 125.713 1.72037 126.261 1.25143 126.928C1.03277 127.263 0.818146 127.645 0.666596 128.045L0.567917 128.347C0.532318 128.447 0.516052 128.546 0.484528 128.662L0.416382 128.979C0.4011 129.079 0.4011 129.194 0.380783 129.297C0.297379 130.147 0.448914 130.961 0.651337 131.713C1.09991 133.21 1.88716 134.546 2.85652 135.71C3.82587 136.878 4.97829 137.879 6.22941 138.678C6.86512 139.095 7.51711 139.445 8.20065 139.763C8.88721 140.076 9.58702 140.343 10.2899 140.561C11.7088 141.01 13.1786 141.276 14.6687 141.395C15.4041 141.443 16.1548 141.479 16.8902 141.46L17.4425 141.443L17.9948 141.412L18.5105 141.379C18.6458 141.379 18.7455 141.379 18.8126 141.395C19.3456 141.51 19.8816 141.161 19.9966 140.628C20.1166 140.097 19.7626 139.559 19.2296 139.445C19.2144 139.445 19.194 139.445 19.1788 139.445H19.1462C18.8604 139.393 18.6102 139.393 18.3763 139.413L17.8433 139.445L17.3428 139.476L16.8383 139.496C16.1548 139.528 15.4875 139.513 14.8193 139.461C13.4644 139.361 12.1462 139.142 10.8585 138.761C10.2227 138.579 9.58702 138.344 8.98692 138.062C8.3868 137.796 7.78362 137.478 7.23131 137.128C6.11446 136.429 5.07697 135.563 4.22664 134.561C3.37323 133.56 2.70497 132.412 2.33574 131.196C2.16894 130.596 2.06924 129.98 2.12112 129.428C2.16894 128.864 2.35608 128.347 2.6897 127.847C3.02335 127.346 3.47189 126.878 3.95708 126.413C4.45753 125.963 4.99356 125.515 5.53063 125.061C5.7961 124.831 6.07887 124.612 6.34841 124.378L7.98602 122.98L8.3868 122.63C8.51802 122.515 8.65329 122.38 8.78856 122.264L10.3418 120.779C10.6082 120.548 10.8422 120.281 11.0924 120.012L11.8441 119.229L12.5947 118.462C12.8287 118.195 13.0637 117.93 13.3139 117.663L14.0167 116.848L14.3667 116.448C14.4856 116.312 14.6016 116.181 14.7165 116.031L16.0551 114.345L16.3887 113.932L16.7071 113.495L17.3225 112.613L17.9429 111.731L18.0935 111.512L18.245 111.283L18.5268 110.829L19.6629 109.013L20.7004 107.131L20.9659 106.666C21.0493 106.514 21.149 106.347 21.2172 106.181L22.1539 104.25C22.3055 103.932 22.4723 103.614 22.6035 103.28L23.4376 101.297L23.6563 100.797C23.7234 100.63 23.7753 100.467 23.8394 100.3L24.2086 99.2985L24.5738 98.2976L24.7609 97.7972C24.8087 97.6344 24.8606 97.4676 24.9277 97.2805L25.5635 95.234L25.711 94.7172C25.7618 94.5504 25.7944 94.3643 25.8452 94.1975L26.1117 93.164L26.3823 92.1306L26.5135 91.6149L26.5806 91.3484L26.6325 91.0819L27.0658 88.9846L27.2835 87.9318L27.4503 86.8821L27.8002 84.7685C27.8683 84.4155 27.8999 84.0656 27.9517 83.7157L28.086 82.6507L28.3372 80.533C28.4837 79.1192 28.6027 77.7165 28.7695 76.3179C29.0879 73.536 29.5049 70.7673 30.1407 68.0536C30.458 66.7018 30.8079 65.351 31.2412 64.0205C31.6786 62.7013 32.1628 61.4024 32.6957 60.1188C33.2481 58.8514 33.8675 57.6196 34.5673 56.4194C35.2701 55.2354 36.0371 54.087 36.8915 53.018C38.5952 50.8687 40.6143 48.986 42.9069 47.4877C45.1955 45.9854 47.7344 44.8889 50.3728 44.1382C53.0144 43.3876 55.7719 43.0061 58.5253 42.8861C59.0777 42.8546 59.511 42.3857 59.4794 41.8374C59.4469 41.2892 58.979 40.8559 58.4267 40.8884C58.4419 40.9556 58.4419 40.9556 58.4419 40.9556Z" fill="#222E6A"/>
<path d="M76.8907 144.693C77.443 144.443 78.0106 144.297 78.5792 144.276C78.7267 144.276 78.8609 144.276 79.0125 144.276C79.0796 144.276 79.163 144.297 79.2312 144.297L79.4967 144.312C79.8628 144.344 80.2321 144.376 80.582 144.395C82.0365 144.479 83.5063 144.443 84.9761 144.245C86.4459 144.062 87.9004 143.696 89.2868 143.128C90.6742 142.56 91.9934 141.761 93.1133 140.744C93.6819 140.243 94.1986 139.695 94.6665 139.095C95.1354 138.496 95.5372 137.863 95.8871 137.212L96.1373 136.712L96.3712 136.21C96.4547 136.043 96.5228 135.861 96.59 135.695L96.6896 135.428L96.7883 135.146C96.9236 134.78 97.007 134.363 97.0751 133.961C97.1229 133.544 97.1423 133.127 97.1066 132.746C97.0395 131.947 96.8564 131.212 96.6734 130.513C96.4902 129.813 96.2878 129.146 96.0895 128.479C95.8871 127.812 95.7203 127.147 95.5535 126.464L95.052 124.43C94.401 121.713 93.8172 118.979 93.4317 116.229C93.0299 113.48 92.7634 110.698 92.5813 107.897C92.3942 105.1 92.2793 102.299 92.1602 99.4981C92.0606 96.7009 91.9771 93.8834 91.8937 91.0669C91.7422 85.4482 91.612 79.8019 91.0078 74.1679C90.7098 71.3514 90.2724 68.5339 89.6051 65.753C88.9379 62.968 88.0153 60.238 86.748 57.6351L86.514 57.155L86.0136 56.1857C85.9302 56.0382 85.8305 55.8714 85.7471 55.7208L85.4765 55.2519C85.3931 55.1045 85.2782 54.9539 85.1947 54.8023L84.6109 53.8889L84.3088 53.4363L83.9752 53.003L83.3232 52.1364C83.2042 51.9858 83.1045 51.8384 82.9896 51.7031L82.6356 51.286L81.9205 50.4713L81.7344 50.2689C81.6703 50.2058 81.6032 50.1377 81.5513 50.0705L81.1658 49.6891L80.3989 48.9222C80.1324 48.6719 79.8466 48.437 79.5801 48.2031C79.3146 47.9721 79.0278 47.7219 78.7623 47.488L77.8916 46.836L77.4593 46.5024L77.2406 46.3356C77.1725 46.2877 77.0891 46.2359 77.0057 46.1891L76.0882 45.589L75.6356 45.2869C75.4881 45.1872 75.3213 45.1038 75.1707 45.0204C72.6634 43.5546 69.9375 42.4541 67.1169 41.7706C64.2912 41.087 61.3669 40.8205 58.463 40.9395C57.9106 40.9558 57.4733 41.4207 57.5089 41.973C57.5251 42.5212 57.994 42.9545 58.5463 42.923H58.5616C64.0095 42.5884 69.556 43.8201 74.2838 46.5227C74.4353 46.6061 74.5859 46.6692 74.7333 46.7729L75.1707 47.0547L76.0363 47.6029C76.1034 47.6548 76.1879 47.6863 76.255 47.7382L76.4574 47.8887L76.8745 48.1868L77.6933 48.8032C77.9597 49.0218 78.21 49.2517 78.4765 49.4704C78.7267 49.6891 78.9962 49.9037 79.2465 50.1377L79.9819 50.8527L80.347 51.2189C80.4152 51.286 80.467 51.3379 80.5342 51.405L80.701 51.6044L81.3845 52.3713L81.7181 52.7528C81.8371 52.887 81.9368 53.0183 82.0365 53.1535L82.6559 53.9683L82.9733 54.369L83.2561 54.8023L83.8237 55.6527C83.9233 55.8043 84.023 55.9355 84.1064 56.086L84.376 56.5345C84.4594 56.6861 84.559 56.8367 84.6424 56.9882L85.1429 57.8863L85.3779 58.3542C86.6137 60.8025 87.4996 63.4207 88.1506 66.1182C88.8026 68.8004 89.2359 71.5701 89.538 74.3347C90.1412 79.8853 90.2887 85.5 90.4555 91.1178C90.5226 93.9312 90.606 96.7324 90.7098 99.549C90.8095 102.366 90.9244 105.184 91.1064 107.996C91.2936 110.814 91.5438 113.647 91.9609 116.448C92.3626 119.264 92.9302 122.046 93.5659 124.796L94.0511 126.862C94.2179 127.561 94.401 128.244 94.5831 128.927C94.7662 129.611 94.9686 130.294 95.1517 130.946C95.3185 131.614 95.47 132.245 95.5209 132.861C95.5535 133.163 95.5209 133.461 95.4853 133.748C95.4375 134.029 95.3866 134.311 95.2707 134.613L95.1873 134.828L95.0845 135.063C95.0164 135.213 94.9686 135.38 94.8852 135.511L94.6665 135.96L94.4325 136.393C94.1152 136.977 93.7653 137.51 93.3483 138.027C92.9465 138.543 92.4939 139.011 91.9934 139.445C91.0078 140.295 89.8716 140.979 88.6511 141.46C87.4315 141.944 86.1285 142.246 84.793 142.394C83.4544 142.56 82.1036 142.56 80.7488 142.477C80.4152 142.444 80.0653 142.429 79.7316 142.377L79.4814 142.346C79.3777 142.329 79.279 142.329 79.163 142.31C78.9606 142.294 78.746 142.294 78.5436 142.294C77.7095 142.329 76.8745 142.528 76.1401 142.846C75.6193 143.061 75.3843 143.645 75.603 144.161C75.7698 144.678 76.3547 144.912 76.8907 144.693Z" fill="#222E6A"/>
<path d="M93.0977 134.31C93.5818 130.246 91.4763 137.878 83.156 136.261C78.4954 135.344 81.0342 133.495 78.1099 136.579C73.0638 141.943 66.2143 141.943 61.987 139.825C57.4729 137.576 58.8592 136.726 55.1527 138.86C44.0749 145.193 34.3011 140.326 30.3911 136.909C26.4812 133.495 27.4668 133.011 23.7084 134.31C19.9653 135.61 14.4859 136.826 9.22216 133.011C5.64582 130.412 3.82614 128.828 4.66019 131.544C6.04659 136.063 12.6784 138.526 19.5798 137.743C20.5339 137.644 21.4199 137.743 22.202 140.509C23.7562 146.076 31.7775 149.075 41.9379 145.177C46.8172 143.31 46.2649 143.827 49.7049 146.528C54.8344 150.526 64.2075 151.527 73.4971 143.195C76.4885 140.509 77.3908 141.259 83.0055 141.259C86.9306 141.259 92.3775 139.079 93.1444 134.862" fill="#FF8856"/>
<path d="M5.21251 131.312C5.10977 131.097 5.02638 130.863 4.99382 130.68C4.97857 130.628 4.97857 130.597 4.97857 130.561C4.97857 130.545 4.97857 130.513 4.97857 130.528C4.97857 130.528 4.97857 130.561 4.96229 130.597C4.96229 130.597 4.94296 130.628 4.92668 130.644C4.91041 130.664 4.89517 130.696 4.87889 130.711C4.84329 130.763 4.77514 130.78 4.7436 130.795C4.72835 130.795 4.708 130.811 4.69172 130.811C4.67647 130.811 4.67647 130.811 4.67647 130.811C4.708 130.811 4.7436 130.83 4.79547 130.847C4.87889 130.878 4.97857 130.93 5.07724 130.978C5.27658 131.078 5.49528 131.212 5.71295 131.347C6.56328 131.88 7.40245 132.496 8.23651 133.112L8.87222 133.58L9.55574 134.046C9.67071 134.129 9.77446 134.196 9.88939 134.28L10.2393 134.478C10.4732 134.613 10.7082 134.744 10.9584 134.88C11.943 135.36 12.9805 135.745 14.0648 135.996C16.2222 136.461 18.4599 136.414 20.5817 135.98C21.6538 135.762 22.6872 135.48 23.6922 135.146C24.1926 134.978 24.6778 134.812 25.1619 134.661C25.6268 134.511 26.112 134.411 26.3622 134.463C26.4812 134.478 26.5972 134.53 26.7477 134.63C26.8982 134.728 27.0813 134.895 27.2482 135.063C27.6021 135.396 27.9835 135.778 28.3528 136.147C28.7383 136.512 29.1197 136.878 29.5215 137.227C29.907 137.577 30.3393 137.943 30.7766 138.277C32.5129 139.596 34.4323 140.629 36.4544 141.379C38.4765 142.127 40.6145 142.596 42.7882 142.742C44.9609 142.894 47.1508 142.679 49.2522 142.163C50.305 141.896 51.3424 141.562 52.3434 141.162L53.0981 140.843C53.214 140.796 53.3483 140.744 53.4643 140.676L53.8335 140.493C54.0674 140.378 54.3187 140.264 54.5526 140.145L55.2514 139.763C55.4864 139.628 55.7203 139.497 55.939 139.378C56.1536 139.246 56.3886 139.127 56.6073 138.996C56.8208 138.877 57.0396 138.761 57.2582 138.663C57.4566 138.563 57.66 138.496 57.775 138.479C57.8421 138.463 57.8746 138.479 57.9102 138.479C57.9418 138.479 58.0089 138.511 58.0923 138.527C58.2439 138.594 58.4422 138.709 58.6609 138.861C59.0942 139.127 59.5468 139.428 60.0157 139.711C60.4806 139.978 60.9495 140.243 61.4347 140.478L61.6167 140.562L61.8039 140.645L62.1853 140.812C62.3206 140.86 62.4355 140.927 62.5708 140.979L62.9563 141.11C64.0091 141.479 65.0934 141.746 66.1787 141.844C66.4482 141.877 66.731 141.896 66.9965 141.912C67.2833 141.929 67.5488 141.944 67.8356 141.929L68.6697 141.912C68.9362 141.896 69.222 141.86 69.4885 141.829C69.6228 141.813 69.754 141.793 69.9055 141.777L70.708 141.61C70.8434 141.579 70.9745 141.562 71.1088 141.527L71.9113 141.312L72.1107 141.26L72.3131 141.193L72.6946 141.062L73.0801 140.927C73.1472 140.911 73.2153 140.879 73.2825 140.864L73.4656 140.78L74.2162 140.426C74.2834 140.395 74.3515 140.378 74.3993 140.343L74.5855 140.243L75.2852 139.846L75.4673 139.743C75.5192 139.711 75.5874 139.663 75.6351 139.628C76.0878 139.309 76.5567 139.028 76.9575 138.663L77.5891 138.146C77.7926 137.963 77.9746 137.76 78.1781 137.577L78.4598 137.295C78.5595 137.196 78.6622 137.097 78.7456 137.013L79.2786 136.429L79.7984 135.845C79.8818 135.762 79.9652 135.662 80.013 135.611C80.013 135.611 79.9977 135.611 79.9815 135.626C79.9652 135.626 79.9652 135.626 79.9458 135.647C79.9143 135.662 79.8818 135.662 79.8309 135.662C79.779 135.662 79.7475 135.662 79.6956 135.662C79.6631 135.662 79.6275 135.647 79.6122 135.647C79.5441 135.611 79.5644 135.611 79.596 135.647L79.7475 135.762C79.8624 135.845 79.9815 135.945 80.1127 136.028C80.3832 136.195 80.6487 136.33 80.9152 136.445C81.4513 136.679 82.0035 136.827 82.5365 136.946C83.6045 137.181 84.7092 137.295 85.8301 137.244C86.9469 137.196 88.0516 136.962 89.1043 136.545C90.1408 136.127 91.1061 135.528 91.9452 134.812C92.1598 134.63 92.3623 134.463 92.5453 134.28L92.8311 134.013C92.9146 133.93 93.0132 133.846 93.0814 133.794C93.1129 133.763 93.1444 133.748 93.1292 133.763H93.1129H93.0814C93.061 133.763 93.0458 133.763 93.0295 133.779C93.0132 133.779 92.9776 133.779 92.9461 133.779C92.9146 133.779 92.879 133.779 92.8464 133.763C92.8108 133.748 92.763 133.727 92.7274 133.711C92.6958 133.68 92.6643 133.68 92.644 133.644C92.6288 133.628 92.5962 133.58 92.5809 133.58C92.5606 133.56 92.5606 133.544 92.5453 133.529L92.529 133.496C92.529 133.477 92.5128 133.461 92.5128 133.461V133.477C92.5128 133.496 92.5128 133.544 92.5128 133.596C92.5128 133.811 92.4772 134.061 92.4619 134.311C92.4294 134.645 92.6643 134.928 92.998 134.963C93.3153 134.995 93.6134 134.761 93.6489 134.446C93.6815 134.18 93.713 133.91 93.7334 133.612C93.7334 133.529 93.7334 133.446 93.7334 133.346C93.7334 133.31 93.7334 133.294 93.713 133.262L93.6967 133.163C93.6967 133.127 93.6652 133.079 93.6652 133.029C93.6652 133.012 93.6489 132.981 93.6296 132.944C93.6134 132.913 93.5981 132.877 93.5818 132.861C93.5655 132.845 93.5147 132.794 93.4821 132.762C93.4465 132.73 93.415 132.694 93.3479 132.662C93.296 132.631 93.2319 132.61 93.181 132.595C93.1292 132.579 93.0814 132.579 93.0295 132.579C92.9776 132.579 92.9298 132.579 92.8942 132.579C92.8627 132.579 92.8311 132.595 92.7956 132.595C92.763 132.61 92.7477 132.61 92.7121 132.61L92.644 132.631C92.4934 132.694 92.4294 132.746 92.3623 132.794C92.227 132.897 92.1273 132.981 92.0123 133.079L91.7103 133.346C91.5078 133.513 91.3248 133.68 91.1264 133.831C90.3554 134.446 89.5213 134.963 88.6039 135.313C87.7016 135.662 86.7323 135.845 85.763 135.861C84.7926 135.897 83.808 135.762 82.8386 135.547C82.3535 135.428 81.9008 135.297 81.4675 135.11C81.2488 135.011 81.0657 134.911 80.8837 134.796C80.8003 134.728 80.7169 134.677 80.6172 134.594L80.4504 134.463L80.3985 134.43L80.3313 134.379L80.2988 134.363L80.2479 134.327L80.1961 134.296C80.1798 134.28 80.1645 134.28 80.132 134.263C80.0649 134.244 80.013 134.228 79.9458 134.212C79.8818 134.196 79.7984 134.196 79.715 134.196C79.6478 134.196 79.5797 134.212 79.5125 134.228C79.481 134.244 79.4454 134.244 79.4291 134.263L79.2939 134.327L79.246 134.363L79.1627 134.43C79.1118 134.463 79.0792 134.494 79.0274 134.53C78.8931 134.645 78.7934 134.761 78.71 134.863L78.1781 135.444L77.6572 136.012L77.526 136.147L77.3908 136.278L77.1243 136.545L76.5882 137.061L76.0044 137.529C75.6351 137.863 75.2018 138.11 74.8001 138.396C74.7522 138.428 74.7014 138.463 74.6495 138.496L74.4827 138.579L74.1644 138.761L73.8511 138.944L73.6802 139.028C73.6324 139.063 73.5642 139.08 73.5134 139.111L72.8451 139.413L72.6783 139.497C72.6305 139.513 72.5633 139.528 72.5115 139.56L72.1616 139.68L71.8086 139.795L71.6418 139.862L71.4587 139.91L70.7396 140.097C70.6246 140.128 70.5057 140.145 70.3745 140.16L70.0042 140.228L69.639 140.295C69.52 140.311 69.3888 140.327 69.2698 140.327C69.0196 140.343 68.7846 140.378 68.5344 140.395L67.799 140.41C67.5488 140.426 67.3148 140.395 67.0646 140.395C66.8144 140.378 66.5794 140.378 66.3292 140.327C65.3436 140.228 64.3905 139.993 63.473 139.663L63.1231 139.544C63.0041 139.513 62.9044 139.445 62.7895 139.393L62.4559 139.246L62.2881 139.163L62.1172 139.08C61.6686 138.845 61.2353 138.611 60.799 138.344C60.3656 138.094 59.9486 137.812 59.4949 137.529C59.261 137.379 59.0301 137.227 58.7127 137.077C58.5459 137.013 58.3588 136.946 58.1442 136.91C57.9255 136.878 57.7078 136.878 57.5085 136.91C57.1077 136.977 56.8056 137.097 56.5391 137.212C56.2726 137.327 56.0224 137.462 55.7884 137.593C55.5535 137.729 55.3195 137.863 55.0846 137.979C54.8506 138.11 54.636 138.244 54.4021 138.36L53.7297 138.73C53.5151 138.845 53.2812 138.944 53.0472 139.063L52.7126 139.226C52.5976 139.278 52.4786 139.33 52.3637 139.378L51.6598 139.68C50.7261 140.045 49.773 140.362 48.7874 140.593C46.8324 141.062 44.8256 141.277 42.8197 141.145C40.817 141.026 38.8467 140.593 36.9548 139.894C35.068 139.195 33.2636 138.244 31.6788 137.045C30.8916 136.445 30.1409 135.745 29.3902 135.047C29.02 134.697 28.6508 134.327 28.2541 133.946C28.0507 133.763 27.832 133.56 27.5502 133.377C27.4149 133.279 27.2482 133.195 27.0813 133.112C26.8982 133.044 26.7162 132.981 26.5137 132.96C26.112 132.913 25.7783 132.96 25.4803 133.012C25.1782 133.079 24.9117 133.148 24.6422 133.231C24.1255 133.394 23.625 133.58 23.1398 133.748C22.1705 134.077 21.2012 134.363 20.2155 134.561C18.2453 134.978 16.2222 135.026 14.2998 134.645C13.3304 134.427 12.3967 134.113 11.5107 133.696C11.292 133.58 11.0774 133.461 10.8587 133.346L10.5251 133.163C10.4254 133.096 10.3227 133.029 10.2068 132.96L9.58728 132.563L8.95564 132.11C8.10122 131.51 7.2509 130.895 6.31308 130.33C6.07913 130.195 5.84416 130.044 5.57869 129.929C5.4434 129.861 5.31219 129.813 5.14538 129.746C5.06198 129.715 4.97857 129.694 4.87889 129.679L4.81175 129.663L4.72835 129.646H4.64493C4.60832 129.646 4.56153 129.646 4.52492 129.646C4.49339 129.646 4.44151 129.646 4.40999 129.663C4.35809 129.679 4.3103 129.694 4.25944 129.715C4.17604 129.73 4.04076 129.813 3.95735 129.897C3.77426 130.08 3.72238 130.294 3.70712 130.43C3.67458 130.711 3.72238 130.878 3.75798 131.045C3.8424 131.363 3.95735 131.614 4.05603 131.88C4.19129 132.178 4.5412 132.312 4.84329 132.178C5.19319 131.979 5.34372 131.63 5.21251 131.312Z" fill="#222E6A"/>
<path d="M78.1781 73.7354C81.2173 73.7354 83.689 76.3017 83.689 79.4528C83.689 82.5988 81.2173 85.1661 78.1781 85.1661C75.1337 85.1661 72.6631 82.5988 72.6631 79.4528C72.6631 76.3017 75.1337 73.7354 78.1781 73.7354Z" fill="#222E6A"/>
<path d="M45.6293 75.6016C48.6685 75.6016 51.1432 78.1688 51.1432 81.3159C51.1432 84.466 48.6685 87.0333 45.6293 87.0333C42.589 87.0333 40.1143 84.466 40.1143 81.3159C40.1143 78.1688 42.589 75.6016 45.6293 75.6016Z" fill="#222E6A"/>
<path d="M42.0361 79.5677C42.0361 80.768 43.6056 81.7688 45.6287 81.7688C47.6508 81.7688 49.1369 80.7995 49.1521 79.5993C49.1521 78.3003 47.5827 76.8336 45.6125 76.8184C43.6575 76.8184 42.0524 78.2688 42.0361 79.5677Z" fill="white"/>
<path d="M74.6016 77.6839C74.6016 78.8842 76.171 79.885 78.1931 79.885C80.2152 79.885 81.7013 78.9157 81.7176 77.7165C81.7176 76.4166 80.1481 74.9508 78.1779 74.9346C76.2229 74.9346 74.6179 76.4013 74.6016 77.6839Z" fill="white"/>
<path d="M59.2512 94.3032C59.4862 93.4366 59.6052 92.5862 59.7517 91.7725C59.887 90.9537 60.0385 90.1552 60.2887 89.4199C60.4036 89.0547 60.5705 88.7211 60.7413 88.4027C60.841 88.2562 60.9244 88.1047 61.0394 87.9857C61.0913 87.9216 61.139 87.8545 61.2062 87.8026L61.3933 87.6358C61.8734 87.2228 62.5254 87.0204 63.1968 87.0712C63.864 87.1038 64.5323 87.3856 65.0999 87.8382C65.3867 88.0528 65.6522 88.3193 65.9024 88.6051C66.1526 88.8879 66.3713 89.2052 66.5707 89.5389C67.3732 90.8703 67.8421 92.4357 68.1595 94.053C68.2072 94.3347 68.4931 94.5372 68.7911 94.47C69.0617 94.4181 69.2448 94.172 69.2285 93.9014C69.1603 93.0358 69.0098 92.1692 68.7758 91.3189C68.5409 90.4685 68.2235 89.6223 67.7902 88.836C67.6906 88.6377 67.5552 88.4383 67.4403 88.2562C67.305 88.0691 67.1738 87.8707 67.0233 87.7039C66.7212 87.3377 66.4038 87.0041 66.0183 86.7061C65.2667 86.106 64.3136 85.6696 63.2964 85.6055C62.796 85.5699 62.2589 85.6218 61.7748 85.7886C61.2896 85.9554 60.8054 86.2057 60.424 86.5555L60.1372 86.7854C60.0385 86.8689 59.9703 86.9879 59.887 87.0875C59.7201 87.2859 59.6052 87.5046 59.4699 87.7039C59.2512 88.1362 59.0692 88.5695 58.9338 89.0028C58.6674 89.8888 58.5677 90.7554 58.469 91.6057C58.3856 92.455 58.3175 93.286 58.1985 94.0682V94.0886C58.1507 94.3866 58.35 94.6531 58.6511 94.704C58.9338 94.7365 59.1841 94.5697 59.2512 94.3032Z" fill="#46334D"/>
<path d="M30.105 66.9681C39.7954 64.2706 48.1198 58.7872 56.8571 53.8885C65.9637 48.755 76.119 47.2526 86.2112 47.2374C87.2995 47.2526 88.4164 47.2892 89.521 47.3727C86.9303 46.7206 84.3915 46.3036 81.8842 46.1043C81.8679 46.1043 81.8527 46.1043 81.8171 46.1043C78.8094 45.8703 75.8688 45.9374 72.9963 46.2558C59.4468 47.7022 47.4159 54.4052 37.8252 59.669C36.8233 60.2173 35.7868 60.7187 34.7493 61.151C33.8003 61.5528 32.8462 61.9179 31.8769 62.2516C30.6726 62.6534 29.4733 63.0032 28.269 63.285C24.6774 64.1516 21.1337 64.5524 17.9113 64.6836C13.6159 64.8707 9.94093 64.5687 7.58418 64.2706C5.19286 63.9685 4.27435 64.7192 4.22656 66.2012C13.0473 67.1197 21.3158 69.6503 30.105 66.9681Z" fill="#F3CA9C"/>
<path d="M104.962 54.8701C105.696 55.752 106.411 56.701 107.13 57.6866C107.167 57.5045 107.199 57.3215 107.214 57.1343C106.698 56.4355 105.911 55.6686 104.962 54.8701Z" fill="#B777BA"/>
<path d="M97.7935 50.3034C95.0005 49.0208 92.2429 48.0708 89.5373 47.3872C88.4357 47.3038 87.3321 47.2682 86.2316 47.252C76.119 47.2886 65.9638 48.7706 56.8725 53.9031C48.1198 58.8027 39.7955 64.2852 30.1243 66.9837C21.3361 69.6497 13.0799 67.119 4.27441 66.2331C4.27441 66.3999 4.27441 66.586 4.29068 66.7691C4.39342 67.949 4.62431 69.1014 4.99355 70.1857C8.70511 75.9987 15.3044 78.8997 21.92 78.8671C18.0101 77.5845 13.5641 75.6336 12.7137 71.1673C17.3072 72.1173 21.8203 73.5993 26.5135 73.9848C26.5135 73.8851 26.5287 73.7814 26.5287 73.6827C28.1185 73.6349 29.7236 73.4681 31.3246 73.1823C32.0793 73.0511 32.831 72.8995 33.5969 72.7174C33.9672 72.634 34.3323 72.5496 34.7015 72.4509C38.3613 71.5009 42.1196 70.083 46.0133 68.4342C46.2279 68.3508 46.4466 68.2511 46.6816 68.1514C52.28 65.752 58.1917 62.9029 64.6405 60.301C70.6915 57.8528 76.0193 56.7522 80.5813 56.4348C81.4988 56.3667 82.405 56.3514 83.2706 56.3351C84.3916 56.3351 85.4606 56.387 86.4818 56.4704C90.5738 56.3667 94.6821 58.0836 98.6113 60.301C99.9784 61.0202 98.4445 62.8002 97.5393 63.086C95.7348 63.6861 93.9986 64.4327 92.2938 65.1834C92.8624 66.0693 93.5815 66.8006 94.7024 67.0671C98.8616 67.5513 102.605 65.3502 105.31 62.0169C106.264 60.7689 106.88 59.2513 107.167 57.6707C106.447 56.685 105.744 55.7513 104.993 54.8531C103.006 53.2206 100.332 51.4681 97.7935 50.3034Z" fill="#F25510"/>
<path d="M43.507 50.8896C42.4023 49.8521 42.2711 48.2552 42.5213 46.7051L40.8003 47.5554C40.3324 47.7863 40.129 48.4058 40.3477 48.9225L40.483 49.2368L41.9009 52.6697C42.1196 53.2057 42.6719 53.4366 43.1367 53.2057L45.8464 51.8702C44.9249 51.8549 44.0389 51.6362 43.507 50.8896Z" fill="#38263B"/>
<path d="M46.6652 44.6543L42.5051 46.7039C42.2549 48.2693 42.386 49.8713 43.4907 50.8884C44.0389 51.635 44.9249 51.8537 45.8271 51.869L49.4705 50.0859C49.6374 47.8044 48.7351 45.4528 46.6652 44.6543Z" fill="#5F5061"/>
<path d="M51.7756 47.8212L50.2895 44.2378L50.2213 44.0547C50.0067 43.538 49.4544 43.2878 48.9855 43.5217L46.6816 44.6548C48.7516 45.4533 49.6375 47.805 49.487 50.0864L51.3097 49.1883C51.7756 48.9533 51.978 48.338 51.7756 47.8212Z" fill="#38263B"/>
<path d="M36.5218 46.089C36.0529 46.3189 35.8546 46.9353 36.0732 47.4561L37.1901 50.1536L37.0741 50.2054C36.9907 50.2533 36.9073 50.3041 36.8239 50.3519C37.424 51.6356 38.0282 52.9192 38.6283 54.2018C39.562 50.7221 40.4673 47.2374 41.3024 43.7363L36.5218 46.089Z" fill="#E6D093"/>
<path d="M41.0674 50.6858L40.4673 49.2363L40.333 48.922C40.1143 48.386 40.3167 47.7859 40.7816 47.555L42.2198 46.8562C42.6725 45.4372 43.122 44.0193 43.591 42.6045L41.2657 43.7528C40.4317 47.2529 39.5294 50.7539 38.5957 54.2184C38.8937 54.8703 39.1958 55.5213 39.5142 56.1692C40.0146 54.3221 40.5313 52.5024 41.0674 50.6858Z" fill="white"/>
<path d="M43.5389 56.586C43.9397 55.2037 44.3414 53.8204 44.7422 52.4188L43.1371 53.205C42.6723 53.4359 42.1047 53.205 41.9013 52.669L41.0835 50.6855C40.5505 52.5022 40.0307 54.3371 39.5293 56.169C39.8477 56.8525 40.1813 57.5361 40.4997 58.2349C41.469 57.6866 42.5055 57.1343 43.5389 56.586Z" fill="#E6D093"/>
<path d="M47.9182 40.4707L43.6064 42.5884C43.1375 44.0033 42.6889 45.4059 42.2363 46.836L46.901 44.5556C47.2499 43.2048 47.5835 41.8378 47.9182 40.4707Z" fill="#E6D093"/>
<path d="M44.7423 52.4187C44.3416 53.805 43.9398 55.2036 43.5391 56.5859C45.1757 55.7203 46.8804 54.8374 48.6208 53.9871C48.9025 52.7045 49.1894 51.4045 49.4548 50.1016L44.7423 52.4187Z" fill="white"/>
<path d="M53.3641 41.7022C53.3326 41.7225 53.3123 41.7225 53.2807 41.7388L52.3266 39.4533C52.1761 39.0718 51.8425 38.8542 51.4926 38.8379C51.4407 39.1715 51.3939 39.5051 51.342 39.8388C51.0918 41.4876 50.809 43.1374 50.5069 44.7699L51.7591 47.8214C51.9777 48.3534 51.7753 48.9535 51.3095 49.1884L49.4542 50.1018C49.1887 51.4048 48.9019 52.7048 48.6201 53.9874C51.4092 52.6213 54.3182 51.3214 57.3412 50.17C55.9386 47.3881 54.5522 44.5868 53.3641 41.7022Z" fill="#E6D093"/>
<path d="M51.4928 38.8379C51.3575 38.8379 51.2263 38.8542 51.0921 38.9213L47.9175 40.4867C47.5829 41.8537 47.2493 43.2045 46.9004 44.5553L48.9856 43.5382C49.4545 43.3042 50.0068 43.5382 50.2214 44.0701L50.2896 44.2532L50.5072 44.7862C50.8093 43.1527 51.0921 41.5038 51.3423 39.855C51.3942 39.5051 51.4409 39.1715 51.4928 38.8379Z" fill="white"/>
<path d="M71.5103 38.2695C64.8947 38.0712 58.7959 39.5735 53.3643 41.6872C54.5523 44.5871 55.9387 47.373 57.3413 50.1539C62.2684 48.2864 67.517 46.836 73.0116 46.2562C74.6848 46.0691 76.3896 45.9857 78.1096 45.9704C76.2706 42.8396 74.1325 40.0699 71.5103 38.2695Z" fill="#5F5061"/>
<path d="M78.1101 45.9704C79.3459 45.9704 80.5817 46.006 81.8369 46.1047L81.8531 45.6724C81.4839 45.1557 79.3622 42.2548 75.2854 38.4211L75.1857 38.5564C73.9499 38.4048 72.714 38.3062 71.5107 38.2695C74.133 40.0699 76.271 42.8396 78.1101 45.9704Z" fill="#AB9BAD"/>
<path d="M33.1126 52.4189C32.663 52.6529 32.2266 52.8512 31.8249 53.0181H31.8096C31.241 59.5706 28.2852 63.2537 28.2852 63.2537V63.2852C29.4884 63.0034 30.6928 62.6535 31.893 62.2518C32.6793 61.9863 33.4665 61.7035 34.2325 61.3862C34.2487 58.3184 33.8154 55.3351 33.1126 52.4189Z" fill="#38263B"/>
<path d="M36.7879 50.3516C35.4371 51.1541 34.2013 51.8539 33.0967 52.4021C33.8006 55.3346 34.2328 58.3179 34.2328 61.3694C34.4159 61.3022 34.5827 61.2188 34.7699 61.1507C35.8023 60.7021 36.8398 60.2169 37.8407 59.6687C38.6951 59.1998 39.581 58.7197 40.4832 58.2193C39.2474 55.6042 38.0278 52.986 36.7879 50.3516Z" fill="#5F5061"/>
<path d="M31.4288 44.1221C31.7106 49.6055 30.491 55.1206 26.9828 58.9349C25.4601 60.6508 23.5062 61.6202 21.6021 61.7198C20.649 62.7848 19.4447 63.7857 17.9434 64.7042C21.1495 64.5689 24.7095 64.1671 28.301 63.3015V63.269C28.301 63.269 31.262 59.5858 31.8255 53.0384H31.8458C31.9608 52.9865 32.0604 52.9347 32.1795 52.8869C32.1439 49.9351 31.9771 47.0382 31.4288 44.1221Z" fill="#8E5E1F"/>
<path d="M52.8288 22.273C56.9727 22.5392 59.4952 27.9387 63.5567 29.4563C65.0265 29.973 66.481 30.5375 67.8827 31.2211C61.1847 26.1071 58.3794 19.4718 51.9266 18.1885C47.5162 17.3064 39.3627 20.3379 29.4221 30.7044C22.8899 37.5061 26.5812 47.4192 24.6943 55.5534C26.6808 51.2702 26.9829 45.2181 28.0672 40.9715C30.6264 29.3576 42.522 21.9074 52.8288 22.273Z" fill="#F3CA9C"/>
<path d="M32.1433 52.8716C32.4454 52.7364 32.7628 52.5695 33.0964 52.419C32.7791 51.0875 32.3936 49.7724 31.9766 48.4531C32.1108 49.9188 32.1433 51.3856 32.1433 52.8716Z" fill="#EEBEF0"/>
<path d="M63.8739 31.0895C66.9132 33.255 69.5039 35.686 71.9114 38.2889C72.9805 38.3367 74.0658 38.4201 75.1704 38.5554L75.2691 38.4201C73.132 36.4051 71.7772 34.0372 68.5508 31.7212C68.3199 31.5543 68.086 31.3875 67.8672 31.2207C66.4809 30.5372 65.0263 29.9564 63.5403 29.4559C62.0705 28.9036 60.7991 27.855 59.5947 26.7227C60.7991 28.3879 62.1539 29.9055 63.8739 31.0895Z" fill="#EEBEF0"/>
<path d="M63.8741 31.0903C62.1541 29.9063 60.7829 28.3887 59.5949 26.7234C57.4568 24.7248 55.4703 22.4562 52.8288 22.2892C42.5057 21.9237 30.606 29.3733 28.0509 41.0035C26.9666 45.2389 26.6645 51.3021 24.678 55.5854C24.1573 57.8017 23.2398 59.8838 21.5869 61.7361C23.49 61.6364 25.445 60.6711 26.9666 58.9542C29.9072 55.7359 31.2417 51.354 31.4289 46.788C31.0078 45.5532 30.5582 44.3367 30.1056 43.1212C30.5745 44.3367 31.0078 45.5532 31.4289 46.788C31.4604 45.9021 31.4604 45.0202 31.4085 44.1383C31.2773 43.4385 31.1268 42.7194 30.9437 42.0043C31.1268 42.7194 31.2773 43.4192 31.4085 44.1383C31.2936 41.8894 30.9244 39.6201 30.3558 37.4872C30.9244 39.6201 31.2936 41.869 31.4085 44.1383C31.6791 45.5888 31.8612 47.0189 31.9771 48.4694C32.3942 49.7886 32.7634 51.1038 33.097 52.4383C34.2851 51.8382 35.588 51.0875 37.0385 50.2372L37.1575 50.1853L36.0376 47.4878C35.823 46.9548 36.0214 46.3557 36.4903 46.1208L51.0762 38.9529C51.5451 38.723 52.0934 38.9529 52.3121 39.4899L53.2651 41.7704C58.828 39.5886 65.0936 38.0547 71.9116 38.3375C69.5203 35.6868 66.9133 33.2558 63.8741 31.0903Z" fill="#F25510"/>
<path d="M13.5328 71.3868C15.2854 72.285 17.1406 73.0194 19.063 73.5167C20.9824 74.0172 22.973 74.3193 24.9595 74.3824C26.9501 74.4505 28.9366 74.303 30.8916 74.0009C31.3767 73.9338 31.8609 73.8341 32.3461 73.7354L33.8006 73.4527C34.7496 73.234 35.7037 72.9838 36.6568 72.7183C40.4314 71.633 44.0596 70.151 47.6349 68.6171C51.2071 67.0832 54.7356 65.4507 58.2601 63.9016C60.032 63.1184 61.8038 62.3514 63.5717 61.6008L64.9113 61.0525C65.3598 60.8857 65.7972 60.7026 66.2457 60.5358C66.6984 60.369 67.148 60.2022 67.6006 60.0354C68.0502 59.8685 68.5028 59.7211 68.9514 59.5705C69.405 59.419 69.8729 59.2847 70.3225 59.1372C70.7752 59.002 71.24 58.8707 71.6936 58.7517C72.6111 58.5015 73.5489 58.2869 74.4664 58.0845C76.338 57.7031 78.2248 57.405 80.1126 57.2535C82.0035 57.0867 83.9229 57.051 85.8097 57.1863C87.7016 57.3013 89.5884 57.5881 91.4447 58.0204C93.2797 58.4537 95.0994 59.0376 96.8041 59.836C97.2415 60.0354 97.6585 60.2541 98.0593 60.4687L98.3614 60.6355L98.6116 60.786C98.6279 60.8023 98.6441 60.8379 98.6594 60.8532C98.6757 60.8695 98.695 60.901 98.695 60.9376C98.695 60.9691 98.7113 60.9844 98.7276 61.021C98.7428 61.1359 98.7428 61.2509 98.695 61.3862C98.6757 61.4177 98.6594 61.4533 98.6441 61.4859L98.6279 61.5367L98.5923 61.5845L98.5282 61.6842C98.4926 61.7198 98.461 61.7513 98.4448 61.7869C98.1905 62.0697 97.8416 62.3362 97.4754 62.5701L97.4561 62.5864C97.1734 62.7532 97.0899 63.1184 97.273 63.4001C97.4398 63.687 97.8091 63.7704 98.0755 63.6036C98.5282 63.3371 98.9777 63.035 99.3785 62.6017C99.4304 62.5539 99.4782 62.4867 99.5301 62.4348L99.6654 62.2365L99.7284 62.1368L99.7803 62.0178C99.8118 61.9344 99.8637 61.8703 99.879 61.7869C100.014 61.4696 100.047 61.0841 99.9787 60.7189C99.9634 60.6355 99.9308 60.5358 99.9156 60.4524C99.879 60.369 99.8474 60.2856 99.7955 60.2022C99.7488 60.1188 99.6969 60.0354 99.645 59.9672C99.6135 59.9357 99.5779 59.8838 99.5453 59.8523L99.4945 59.7852C99.4782 59.7689 99.4467 59.7374 99.4111 59.7211L99.3633 59.6855C99.347 59.6692 99.3277 59.6692 99.3277 59.6692L99.2951 59.6377L99.2117 59.5858L99.0449 59.4871L98.7276 59.2847C98.2942 59.0376 97.8569 58.8036 97.4083 58.5849C95.6201 57.7031 93.7333 57.051 91.8099 56.571C89.8864 56.0858 87.9162 55.7878 85.9449 55.6372C83.9748 55.4857 81.9842 55.5019 80.0292 55.6525C76.0877 55.9352 72.2093 56.7845 68.4672 57.9848C68.0024 58.1364 67.5335 58.2869 67.0646 58.4537C66.5957 58.6012 66.1461 58.7873 65.6772 58.9541C65.2093 59.121 64.7597 59.3041 64.3071 59.4871L62.9563 60.0354C61.1519 60.7698 59.3637 61.553 57.5918 62.3199C54.0481 63.8853 50.5236 65.5178 46.9839 67.068C43.4391 68.6019 39.8638 70.0513 36.2041 71.1681C32.5444 72.2687 28.7698 73 24.9951 72.9166C23.1042 72.8851 21.2174 72.6501 19.3967 72.2016C18.4792 71.987 17.5739 71.7011 16.691 71.3665C15.8051 71.0532 14.9355 70.6677 14.0648 70.2659C13.7667 70.1194 13.4138 70.2507 13.2663 70.5528C13.131 70.8864 13.247 71.2363 13.5328 71.3868Z" fill="#222E6A"/>
<path d="M74.8682 38.8686C75.384 39.5043 75.9363 40.1045 76.4886 40.7209L78.1414 42.5202L79.7791 44.3206L81.4157 46.1036V46.1199C81.6344 46.3701 82.0199 46.3864 82.2701 46.1514C82.4887 45.9694 82.5203 45.6551 82.385 45.4211C81.968 44.6542 81.4838 43.9859 80.9824 43.3034C80.7321 42.9688 80.4667 42.6555 80.1961 42.3219C79.9296 42.0035 79.6479 41.6861 79.362 41.3718C79.0793 41.0697 78.7935 40.7524 78.4954 40.4696C78.1933 40.1716 77.9075 39.8858 77.5891 39.604C76.9901 39.0354 76.338 38.4872 75.6708 37.9868C75.4043 37.7884 75.0351 37.8362 74.8357 38.1057C74.6852 38.3519 74.6852 38.654 74.8682 38.8686Z" fill="#31133D"/>
<path d="M18.1942 65.236C19.0802 64.7193 19.9305 64.1355 20.7168 63.4682C21.504 62.801 22.2384 62.0381 22.8548 61.203C23.4743 60.369 24.0072 59.4515 24.4436 58.5014C24.8617 57.5514 25.179 56.5546 25.414 55.5538C25.8788 53.5347 25.9978 51.4882 26.0294 49.4864C26.065 47.4714 26.0131 45.489 26.0456 43.5218C26.0813 41.5557 26.2165 39.62 26.6335 37.7535C26.8319 36.8229 27.1177 35.9217 27.4839 35.055C27.8531 34.1894 28.318 33.3706 28.854 32.624C29.1368 32.2538 29.4226 31.8887 29.7399 31.5388L29.9749 31.2723L30.2251 31.0068L30.7418 30.4738C31.0917 30.1208 31.4447 29.7709 31.7946 29.4373C32.1445 29.1077 32.4974 28.7578 32.8636 28.4242C34.3019 27.0887 35.7879 25.8055 37.3574 24.6215C38.1437 24.0215 38.931 23.4573 39.7488 22.9249C40.5675 22.3885 41.3863 21.872 42.2367 21.4071C43.9404 20.4734 45.7133 19.6906 47.5523 19.2218C48.0019 19.1224 48.4708 19.0072 48.9387 18.9556C49.1696 18.9238 49.4036 18.9079 49.6222 18.8721C49.8572 18.8563 50.0912 18.8404 50.3058 18.8404C50.7594 18.8404 51.208 18.8721 51.6454 18.9397C51.86 18.9715 52.0939 19.039 52.3126 19.0907C52.5313 19.1582 52.7653 19.206 52.9799 19.2894C54.7365 19.8734 56.2897 20.99 57.7086 22.2891C59.1306 23.6043 60.4336 25.0903 61.8047 26.5406C63.1718 28.0072 64.5937 29.4373 66.1469 30.7565L66.7318 31.2367L67.3309 31.7056L68.5352 32.5874C69.3062 33.156 70.0416 33.7877 70.7241 34.4712C72.0952 35.822 73.2996 37.4393 74.8172 38.8378C75.0511 39.0565 75.4366 39.0565 75.6553 38.8063C75.8699 38.5713 75.8699 38.2062 75.636 37.9712C74.9524 37.304 74.3167 36.5726 73.681 35.8057C73.0493 35.055 72.377 34.2729 71.6782 33.5375C70.9754 32.8061 70.2084 32.1073 69.3896 31.4869L68.2016 30.5897L67.633 30.1402L67.0807 29.6712C65.5946 28.4039 64.2438 27.0053 62.9053 25.5393C61.5697 24.089 60.2668 22.5713 58.7767 21.1568C58.026 20.4575 57.2234 19.79 56.3568 19.206C55.4872 18.6218 54.5178 18.1411 53.5159 17.7914C53.2657 17.6921 52.9961 17.6405 52.7459 17.5571C52.4794 17.4895 52.2292 17.422 51.9627 17.3743C51.4104 17.2749 50.8581 17.2232 50.3261 17.2392C50.0556 17.2392 49.789 17.2551 49.5236 17.2749C49.253 17.3067 48.9866 17.3226 48.7363 17.3584C48.2043 17.422 47.6998 17.5411 47.1831 17.6563C45.161 18.1728 43.2579 19.0072 41.4698 19.9728C40.5675 20.4575 39.6979 20.99 38.8475 21.5581C37.9931 22.1064 37.1743 22.7064 36.3555 23.3063C34.7352 24.5221 33.2166 25.8571 31.7427 27.224C31.3776 27.5739 31.0083 27.9228 30.6584 28.2727C30.3085 28.6226 29.9393 28.9725 29.5894 29.3376L29.0727 29.8737L28.8031 30.1402L28.5366 30.4229C28.1868 30.8044 27.8531 31.2214 27.5347 31.6537C26.9153 32.5203 26.3986 33.4378 25.9978 34.4041C25.5961 35.3734 25.2787 36.3702 25.06 37.3874C24.6104 39.4217 24.5118 41.456 24.4914 43.471C24.4762 45.489 24.5433 47.4714 24.5433 49.4386C24.527 51.4048 24.4284 53.3516 24.0266 55.2191C23.8242 56.1528 23.5577 57.0713 23.1885 57.9369C22.8233 58.8036 22.3544 59.6376 21.8021 60.4005C20.6853 61.9343 19.2307 63.1854 17.5748 64.2026C17.292 64.3704 17.2086 64.7356 17.3754 65.0174C17.5585 65.3032 17.9125 65.4028 18.1942 65.236Z" fill="#222E6A"/>
<path d="M49.9041 44.4053L50.6741 46.288L51.0596 47.238L51.2427 47.6866L51.3424 47.9216L51.3576 47.9887L51.378 48.0202C51.3943 48.0365 51.3943 48.0721 51.3943 48.1037C51.441 48.303 51.378 48.537 51.259 48.6722C51.2264 48.7038 51.1908 48.7353 51.1593 48.7557C51.143 48.7719 51.1237 48.7719 51.1074 48.7872L50.9925 48.8391L50.5236 49.0537L48.6876 49.9193L45.0086 51.6718L43.1726 52.5537L42.9387 52.6697L42.8868 52.7053L42.8715 52.7205C42.8552 52.7205 42.839 52.7205 42.839 52.7368C42.7881 52.7531 42.7362 52.7531 42.6722 52.7205C42.6213 52.7053 42.5532 52.6534 42.5216 52.6056C42.5053 52.57 42.4698 52.5384 42.4535 52.5028L42.4382 52.4703L42.4219 52.4032L42.3701 52.2882L41.5838 50.4045L41.182 49.4707L40.9837 49.0059L40.884 48.7719L40.8647 48.7201L40.8484 48.6885C40.8331 48.6722 40.8331 48.656 40.8331 48.6204C40.7813 48.4536 40.8331 48.2552 40.9166 48.1362C40.9318 48.1037 40.9684 48.0884 40.9837 48.0721C41 48.0558 41.0152 48.0558 41.0356 48.0365L41.1505 47.9887L41.6042 47.7548L43.4238 46.821L47.0469 44.9729L48.8707 44.0554L49.1057 43.9404L49.1524 43.9038L49.1891 43.8886C49.2043 43.8723 49.2206 43.8723 49.2521 43.8723C49.3396 43.857 49.423 43.857 49.5064 43.8886C49.5898 43.9201 49.6732 43.972 49.7373 44.0554C49.7729 44.0869 49.8044 44.1388 49.8207 44.1866L49.84 44.2222L49.8563 44.2893L49.9041 44.4053ZM50.6741 44.0869L50.6232 43.972L50.607 43.9038L50.5754 43.8204C50.5236 43.7218 50.4565 43.6221 50.3883 43.5224C50.2418 43.3403 50.0384 43.1888 49.8044 43.1054C49.5705 43.0219 49.304 43.0067 49.0538 43.0535C48.9857 43.0698 48.9378 43.0901 48.8707 43.1216L48.7873 43.1532L48.7354 43.1888L48.5015 43.3047L46.6655 44.1866L42.9905 45.9381L41.1505 46.8047L40.6816 47.0194L40.5667 47.0712C40.5148 47.1028 40.4476 47.1384 40.3998 47.1699C40.2808 47.238 40.1812 47.3367 40.0978 47.4364C39.7479 47.8382 39.6289 48.3864 39.7479 48.8706C39.7641 48.9387 39.7804 48.9865 39.7957 49.0537L39.8313 49.1371L39.8475 49.2042L39.9472 49.4392L40.1293 49.904L40.5148 50.853L41.2858 52.7368L41.3336 52.8517L41.3499 52.9199L41.3855 53.0033C41.4333 53.1223 41.5167 53.2372 41.6042 53.3369C41.771 53.5353 42.0009 53.7224 42.2551 53.8058C42.5216 53.9045 42.8196 53.9208 43.0892 53.8536C43.1574 53.8373 43.2204 53.8211 43.2885 53.7855L43.3872 53.7539L43.4391 53.7224L43.6741 53.6034L45.4937 52.689L49.1209 50.8378L50.9406 49.904L51.3943 49.669L51.5092 49.6223C51.5611 49.5857 51.6282 49.5541 51.676 49.5226C51.7757 49.4544 51.8784 49.3558 51.9618 49.2724C52.2802 48.8869 52.3789 48.3864 52.2599 47.9216C52.2436 47.8697 52.2283 47.8056 52.2121 47.7548L52.1765 47.6714L52.1602 47.6032L52.0615 47.3733L51.8591 46.9044L51.4614 45.9707L50.6741 44.0869Z" fill="#31133D"/>
<path d="M53.5 42.2863C55.2516 41.7014 57.0082 41.1532 58.7964 40.7046C60.5642 40.2357 62.3717 39.8543 64.1761 39.5878C65.0783 39.4372 65.9795 39.3375 66.898 39.2379C67.7992 39.1392 68.7218 39.0873 69.6392 39.0558C71.4589 38.9876 73.299 39.0202 75.1339 39.1545C75.4675 39.1707 75.7543 38.9368 75.7696 38.6021C75.7859 38.3051 75.5713 38.0386 75.2855 37.9705C73.4139 37.6369 71.5108 37.4863 69.623 37.4863C68.6699 37.4863 67.7158 37.5219 66.7668 37.6053C66.2979 37.6369 65.8127 37.705 65.3438 37.7365C64.8749 37.7884 64.41 37.8556 63.9259 37.9196C62.9881 38.0702 62.0543 38.2533 61.1328 38.4557C60.2143 38.6703 59.2968 38.9042 58.3946 39.187C56.5708 39.7393 54.803 40.3862 53.0983 41.1694C52.7962 41.3047 52.6619 41.6536 52.7962 41.9516C52.8959 42.2537 53.2142 42.3849 53.5 42.2863Z" fill="#31133D"/>
<path d="M32.0604 53.5705C32.5801 53.4515 33.0653 53.2888 33.5301 53.0864C33.9991 52.887 34.4517 52.6693 34.9013 52.4191C35.3376 52.1882 35.7709 51.9217 36.188 51.6359C36.605 51.3542 37.0068 51.0521 37.3923 50.7225C37.6425 50.5038 37.6588 50.1224 37.4401 49.8722C37.2733 49.6891 37.0068 49.6219 36.7881 49.7054C36.3039 49.8722 35.8544 50.0705 35.421 50.2892C34.9684 50.5038 34.5351 50.7225 34.1181 50.9727C33.6807 51.2026 33.2636 51.4528 32.8466 51.703C32.4296 51.9532 32.0278 52.2045 31.6271 52.4863H31.6108C31.3453 52.6887 31.2772 53.0549 31.4603 53.3366C31.5752 53.5197 31.8254 53.6183 32.0604 53.5705Z" fill="#31133D"/>
<path d="M40.1817 58.0845C40.2651 58.0845 40.3485 58.0683 40.432 58.0367C40.7656 57.9015 40.9324 57.5048 40.8012 57.1701L36.6736 47.1858C36.5902 46.9711 36.6736 46.7372 36.8088 46.669L51.3948 39.5052C51.4416 39.49 51.4935 39.4696 51.5454 39.5052C51.6288 39.5368 51.6918 39.6049 51.7285 39.7046L55.9558 49.9351C56.087 50.2687 56.4877 50.4356 56.8214 50.3043C57.1591 50.1701 57.3269 49.7724 57.1916 49.4388L52.9633 39.2031C52.7812 38.7708 52.4476 38.4209 52.0102 38.2694C51.6084 38.1229 51.1762 38.1382 50.81 38.3375L36.2403 45.5054C35.454 45.8868 35.1041 46.8715 35.454 47.7218L39.5623 57.6868C39.665 57.9371 39.9152 58.0845 40.1817 58.0845Z" fill="#31133D"/>
<path d="M27.2833 81.8516C26.8978 81.8679 26.4452 81.8679 26.0281 81.8679C25.5948 81.8679 25.1778 81.8516 24.7404 81.8313C23.8901 81.7997 23.0408 81.7163 22.1863 81.6176C20.4979 81.3989 18.8287 81.0328 17.2074 80.4845C15.6023 79.9485 14.0491 79.2334 12.6149 78.3516C11.1757 77.4656 9.85743 76.4007 8.73649 75.1485C7.6156 73.9168 6.69814 72.5029 6.04615 70.9843C5.72879 70.2184 5.46229 69.4352 5.29548 68.6164C5.19276 68.2197 5.12867 67.8027 5.0768 67.4009C5.04526 67.2026 5.02594 66.9839 5.00965 66.7855C4.99338 66.5862 4.97811 66.4 4.99338 66.2332C5.00965 65.8833 5.09306 65.6005 5.22836 65.4185C5.29548 65.335 5.37889 65.2516 5.49484 65.1998C5.61384 65.1357 5.74507 65.0848 5.89559 65.0523C6.21397 64.9852 6.59844 64.9689 6.97988 64.9852C7.18331 65.0014 7.36538 65.0167 7.58407 65.0523L8.23606 65.1357C9.98761 65.335 11.7605 65.45 13.5161 65.5171C17.0406 65.6168 20.6006 65.45 24.0894 64.9333C27.6017 64.4165 31.0579 63.5509 34.384 62.2195C35.2028 61.8859 36.0207 61.5166 36.8232 61.1352C37.2249 60.9369 37.6257 60.7334 38.0071 60.5188L39.1636 59.8831C40.6975 59.0531 42.2192 58.2191 43.7571 57.4043C46.832 55.7667 49.9394 54.2176 53.0976 52.819C56.2528 51.4204 59.4945 50.1845 62.8043 49.203C66.1142 48.2184 69.4881 47.4871 72.8965 47.1016C76.306 46.7201 79.7623 46.6886 83.1718 47.07C86.5803 47.4352 89.9379 48.2021 93.1959 49.3189C94.8172 49.8713 96.4223 50.5344 97.9602 51.2536C99.4778 51.9849 100.968 52.8708 102.354 53.8524C103.054 54.3366 103.741 54.8533 104.393 55.4016C105.045 55.9538 105.66 56.5184 106.212 57.1185C106.479 57.4196 106.729 57.7339 106.915 58.0522C107.015 58.2028 107.083 58.3533 107.115 58.4845C107.13 58.5211 107.13 58.5364 107.13 58.5679V58.6005C107.13 58.6198 107.13 58.6513 107.13 58.6676C107.13 58.751 107.146 58.8507 107.146 58.9534C107.146 59.701 106.963 60.5036 106.698 61.2502C106.145 62.7678 105.176 64.1664 104.023 65.3869C103.455 66.0023 102.819 66.5506 102.167 67.0825C101.516 67.6196 100.816 68.0997 100.097 68.5686C97.2248 70.4005 93.9984 71.7157 90.7089 72.7328C90.3905 72.8325 90.2237 73.1661 90.3234 73.4835C90.4231 73.8018 90.7567 73.9687 91.0588 73.8853C94.4317 72.8681 97.7578 71.5692 100.797 69.6691C101.552 69.185 102.302 68.6845 103.006 68.1363C103.705 67.584 104.393 66.9839 105.024 66.3359C106.28 65.0329 107.365 63.5194 108.032 61.7669C108.366 60.9003 108.584 59.9665 108.601 58.9697C108.601 58.8507 108.601 58.7195 108.584 58.5842C108.584 58.5527 108.584 58.5364 108.584 58.4845C108.584 58.4367 108.568 58.4011 108.568 58.3533C108.553 58.2699 108.533 58.1865 108.517 58.1194C108.434 57.8173 108.303 57.5874 108.184 57.3524C107.917 56.9191 107.631 56.554 107.313 56.2041C106.698 55.5012 106.029 54.9011 105.343 54.3213C104.659 53.7365 103.94 53.2045 103.221 52.6878C101.766 51.6513 100.249 50.7369 98.6274 49.9343C97.0061 49.1715 95.3858 48.4879 93.7126 47.9041C90.3712 46.7201 86.8824 45.9013 83.3539 45.5199C79.8305 45.1191 76.2542 45.1547 72.7297 45.5361C69.2012 45.9217 65.7287 46.6682 62.3354 47.6701C58.9422 48.671 55.6527 49.9343 52.4263 51.3533C49.204 52.7671 46.0772 54.3528 42.9902 56.0016C41.4522 56.8205 39.9143 57.6708 38.3774 58.5008L37.2402 59.1365C36.871 59.3349 36.4896 59.5342 36.104 59.7204C35.3371 60.1018 34.5671 60.4354 33.7636 60.769C30.589 62.0527 27.2477 62.903 23.8585 63.3994C20.4653 63.9161 17.005 64.1033 13.5476 64.0199C11.8276 63.968 10.1076 63.8683 8.38662 63.6863L7.75091 63.6181C7.53218 63.5866 7.28198 63.5662 7.04803 63.5509C6.56285 63.5194 6.06241 63.5347 5.53044 63.6496C5.25988 63.7178 4.97811 63.8175 4.70756 63.968C4.44107 64.1185 4.19085 64.3331 3.99249 64.5997C3.80535 64.8702 3.67413 65.152 3.59072 65.4337C3.50732 65.7165 3.47171 65.986 3.47171 66.2525C3.45646 66.5028 3.47171 66.7692 3.50732 66.9991C3.5236 67.2341 3.55513 67.4528 3.59072 67.6827C3.65889 68.1363 3.72195 68.5849 3.84196 69.0334C4.04032 69.9357 4.34242 70.8022 4.69129 71.6322C5.41043 73.3166 6.44792 74.8505 7.66748 76.182C8.90333 77.5165 10.3416 78.6496 11.8755 79.5833C13.4134 80.5171 15.0703 81.2515 16.7741 81.7997C18.4788 82.3479 20.2313 82.7182 22.0032 82.9328C22.8892 83.0315 23.7751 83.0997 24.657 83.1312C25.1107 83.1505 25.5429 83.1505 25.9966 83.1505C26.4452 83.1505 26.8663 83.1312 27.3473 83.1149C27.6851 83.0997 27.9353 82.8169 27.9149 82.4995C27.8997 82.1812 27.6332 81.9157 27.2996 81.9309L27.2833 81.8516Z" fill="#222E6A"/>
<path d="M28.7548 63.6193C28.9053 63.4373 29.0202 63.2857 29.1556 63.1189C29.2715 62.9521 29.3905 62.7853 29.5054 62.6184C29.6204 62.4516 29.7241 62.2686 29.8391 62.1018L30.1412 61.5698C30.543 60.8537 30.8766 60.1193 31.1746 59.3687C31.3089 58.9872 31.4757 58.621 31.5957 58.2355L31.7778 57.6517C31.8459 57.4533 31.8775 57.2703 31.9446 57.0719C31.9965 56.8695 32.0443 56.6864 32.0961 56.4881L32.2273 55.888C32.3301 55.4862 32.3779 55.0854 32.4461 54.704C32.5132 54.3022 32.5447 53.9045 32.5966 53.5037C32.6485 53.102 32.68 52.7053 32.6962 52.3035C32.7319 51.505 32.7319 50.6862 32.68 49.8878C32.5803 48.2868 32.3464 46.6898 31.9293 45.156C31.8459 44.8376 31.5123 44.6555 31.1939 44.7389C30.8918 44.8223 30.7098 45.1041 30.7565 45.3858C30.96 46.9044 31.0912 48.422 31.1268 49.9356C31.142 51.4532 31.0434 52.9708 30.8084 54.4538C30.5897 55.9358 30.2246 57.4055 29.7394 58.8357C29.4892 59.5355 29.2034 60.2546 28.886 60.9178L28.3846 61.9186C28.3011 62.0855 28.2025 62.2523 28.1191 62.4038C28.0357 62.5544 27.9156 62.7181 27.8322 62.8524L27.817 62.8849C27.6339 63.1708 27.7173 63.5359 28.0001 63.7027C28.234 63.9021 28.5514 63.8543 28.7548 63.6193Z" fill="#222E6A"/>
<path d="M24.6781 95.6992C21.3845 100.682 16.2906 103.547 15.0029 106.463C13.5168 109.833 15.6864 113.146 20.3989 113.647C24.4279 114.08 31.8104 111.648 38.6599 102.815" fill="white"/>
<path d="M24.1771 95.3653C23.0725 96.9307 21.7695 98.3496 20.3505 99.68C19.6477 100.348 18.9123 100.999 18.1932 101.667C17.4578 102.331 16.7234 102.998 16.0043 103.733C15.6543 104.099 15.3044 104.5 14.9871 104.933C14.8193 105.147 14.6687 105.382 14.5334 105.616L14.4348 105.799L14.3351 105.998C14.268 106.133 14.2161 106.248 14.1683 106.383C13.7472 107.417 13.5997 108.617 13.8662 109.764C14.0015 110.333 14.2313 110.881 14.5497 111.366C14.8671 111.846 15.2526 112.28 15.6859 112.649C16.5566 113.38 17.5737 113.849 18.6102 114.147C19.131 114.298 19.663 114.397 20.1796 114.449C20.7157 114.512 21.268 114.533 21.7847 114.497C22.3208 114.481 22.8375 114.413 23.3542 114.33C23.875 114.247 24.3754 114.131 24.8759 113.996C26.8827 113.448 28.738 112.546 30.458 111.465C32.179 110.38 33.7485 109.097 35.203 107.698C35.9222 106.999 36.6047 106.264 37.2567 105.497C37.9087 104.746 38.5281 103.948 39.1282 103.15C39.3306 102.883 39.2635 102.514 39.0133 102.314C38.7631 102.132 38.3928 102.164 38.1945 102.414C37.575 103.165 36.9393 103.9 36.2873 104.615C35.62 105.314 34.9365 105.998 34.2327 106.65C32.8147 107.948 31.2931 109.132 29.6555 110.114C28.0189 111.1 26.2785 111.914 24.4751 112.379C24.0255 112.498 23.5729 112.598 23.104 112.681C22.6554 112.765 22.1865 112.816 21.7369 112.832C21.2843 112.848 20.8317 112.832 20.3984 112.78C19.9488 112.732 19.4961 112.649 19.0791 112.514C18.2247 112.28 17.4059 111.898 16.7742 111.366C16.4569 111.1 16.1711 110.781 15.9565 110.448C15.7378 110.114 15.5862 109.733 15.4875 109.347C15.3044 108.58 15.3685 107.73 15.6859 106.931C15.9717 106.164 16.5403 105.449 17.176 104.746C17.8077 104.047 18.5268 103.383 19.2296 102.716C19.9488 102.048 20.6648 101.365 21.3677 100.649C22.7704 99.2315 24.1089 97.6976 25.1942 95.9817C25.361 95.6989 25.2776 95.3337 25.0112 95.1669C24.7091 95.0317 24.3592 95.115 24.1771 95.3653Z" fill="#222E6A"/>
<path d="M36.4385 90.5807C36.4385 90.895 36.5656 91.1971 36.824 91.487C37.0783 91.7769 37.4445 92.0352 37.9174 92.2539C38.3894 92.4756 38.9346 92.6465 39.554 92.7696C40.1735 92.8896 40.8173 92.9486 41.4846 92.9486C42.1529 92.9486 42.7957 92.8896 43.4162 92.7696C44.0356 92.6465 44.5798 92.4756 45.0528 92.2539C45.5257 92.0352 45.8909 91.7769 46.1452 91.487C46.4036 91.1971 46.5307 90.895 46.5307 90.5807C46.5307 90.2664 46.4036 89.9653 46.1452 89.6744C45.8909 89.3845 45.5257 89.1302 45.0528 88.9085C44.5798 88.6857 44.0356 88.5148 43.4162 88.3958C42.7957 88.2758 42.1529 88.2168 41.4846 88.2168C40.8173 88.2168 40.1735 88.2758 39.554 88.3958C38.9346 88.5148 38.3894 88.6857 37.9174 88.9085C37.4445 89.1302 37.0783 89.3845 36.824 89.6744C36.5656 89.9653 36.4385 90.2664 36.4385 90.5807Z" fill="#FF8856"/>
<path d="M78.7451 88.0504C78.7451 88.3567 78.853 88.6506 79.0676 88.9364C79.2852 89.2182 79.5914 89.4684 79.9931 89.6871C80.3899 89.9057 80.8506 90.0726 81.3755 90.1875C81.8963 90.3076 82.4404 90.3665 83.005 90.3665C83.5685 90.3665 84.1126 90.3076 84.6335 90.1875C85.1583 90.0726 85.619 89.9057 86.0168 89.6871C86.4175 89.4684 86.7237 89.2182 86.9424 88.9364C87.157 88.6506 87.2638 88.3567 87.2638 88.0504C87.2638 87.7402 87.157 87.4463 86.9424 87.1646C86.7237 86.8777 86.4175 86.6275 86.0168 86.4128C85.619 86.1952 85.1583 86.0273 84.6335 85.9083C84.1126 85.7934 83.5685 85.7334 83.005 85.7334C82.4404 85.7334 81.8963 85.7934 81.3755 85.9083C80.8506 86.0273 80.3899 86.1952 79.9931 86.4128C79.5914 86.6275 79.2852 86.8777 79.0676 87.1646C78.853 87.4463 78.7451 87.7402 78.7451 88.0504Z" fill="#FF8856"/>
<circle cx="161" cy="36" r="36" fill="#F25510"/>
<path d="M312.335 75.971L306.743 70.176C306.442 69.8637 306.033 69.6883 305.607 69.6883C305.181 69.6883 304.772 69.8637 304.471 70.176C304.169 70.4882 304 70.9117 304 71.3533C304 71.572 304.042 71.7885 304.122 71.9905C304.203 72.1926 304.321 72.3761 304.471 72.5307L311.207 79.5115C311.835 80.1628 312.851 80.1628 313.479 79.5115L330.529 61.8424C330.831 61.5302 331 61.1067 331 60.6651C331 60.2235 330.831 59.7999 330.529 59.4877C330.228 59.1754 329.819 59 329.393 59C328.967 59 328.558 59.1754 328.257 59.4877L312.335 75.971Z" fill="white"/>
<line x1="151.243" y1="24" x2="172" y2="44.7574" stroke="white" stroke-width="6" stroke-linecap="round"/>
<line x1="172" y1="28.2426" x2="151.243" y2="49" stroke="white" stroke-width="6" stroke-linecap="round"/>
</svg>
