<svg width="48" height="20" viewBox="0 0 48 20" fill="none" xmlns="http://www.w3.org/2000/svg">
<path d="M5.62943 8.62741C4.63591 8.26614 4.09377 7.97244 4.09377 7.52101C4.09377 7.1371 4.4097 6.93406 4.95224 6.93406C5.99116 6.93406 7.02998 7.31797 7.75249 7.67924L8.15906 5.14956C7.5943 4.87854 6.41991 4.42661 4.79405 4.42661C3.64229 4.42661 2.69363 4.72035 2.01562 5.28512C1.29307 5.87206 0.931844 6.73057 0.931844 7.74681C0.931844 9.59885 2.06138 10.412 3.91341 11.067C5.08784 11.4962 5.49442 11.7899 5.49442 12.264C5.49442 12.716 5.11051 12.9643 4.41024 12.9643C3.55177 12.9643 2.12895 12.5351 1.20341 11.9934L0.796875 14.5453C1.58736 14.9967 3.05544 15.4713 4.5911 15.4713C5.81084 15.4713 6.8049 15.1775 7.50468 14.6354C8.27294 14.0258 8.65644 13.1451 8.65644 11.9929C8.65599 10.0955 7.50364 9.30506 5.62943 8.62741ZM15.7476 4.6301H13.5792V1.58101L10.6656 2.05512L10.2591 4.6301L9.22016 4.81051L8.83626 7.13665H10.2364V12.0827C10.2364 13.3699 10.5754 14.2511 11.2304 14.7932C11.7951 15.2446 12.6083 15.4708 13.7374 15.4708C14.6181 15.4708 15.1375 15.3126 15.5214 15.2224V12.5572C15.3179 12.6026 14.8437 12.7159 14.5274 12.7159C13.8724 12.7159 13.5787 12.3542 13.5787 11.5864V7.13715H15.3179L15.7476 4.6301ZM22.4555 4.56208C22.2293 4.51718 22.0262 4.49454 21.8227 4.49454C20.8744 4.49454 20.1066 4.99133 19.8129 5.89465L19.5867 4.63006H16.6283V15.2677H20.016V8.35635C20.4452 7.83689 21.0549 7.65652 21.868 7.65652C22.0484 7.65652 22.2293 7.65652 22.455 7.70142L22.4555 4.56208ZM24.9846 0C23.9906 0 23.2006 0.790485 23.2006 1.78405C23.2006 2.77762 23.9911 3.59074 24.9846 3.59074C25.9782 3.59074 26.7691 2.77807 26.7691 1.78405C26.7691 0.790031 25.9787 0 24.9846 0ZM26.679 15.2677V4.63006H23.2912V15.2677H26.679ZM36.3225 5.601C35.7129 4.81052 34.877 4.42657 33.8155 4.42657C32.8446 4.42657 31.9861 4.83315 31.173 5.69161L30.9926 4.63006H28.011V19.197L31.3992 18.6327V15.2223C31.9186 15.3805 32.4607 15.4707 32.9348 15.4707C33.7706 15.4707 35.0131 15.2445 35.9612 14.2056C36.8872 13.2116 37.3392 11.676 37.3392 9.64307C37.3392 7.83729 37.0001 6.45951 36.3225 5.601ZM33.4996 12.1511C33.2286 12.6479 32.7993 12.9416 32.3252 12.9416C31.9866 12.9416 31.6702 12.8741 31.3992 12.7386V7.67924C31.9862 7.06958 32.5056 7.00159 32.6865 7.00159C33.5449 7.00159 33.9737 7.95026 33.9737 9.75695C33.9742 10.7958 33.8155 11.5864 33.4996 12.1511ZM45.9666 5.87202C45.2209 4.92381 44.1146 4.42657 42.7139 4.42657C39.823 4.42657 38.039 6.54963 38.039 9.98267C38.039 11.8796 38.5131 13.325 39.4613 14.2284C40.2972 15.0642 41.5169 15.4708 43.0979 15.4708C44.5433 15.4708 45.8759 15.1317 46.7117 14.567L46.35 12.2408C45.5142 12.6923 44.5433 12.9411 43.4591 12.9411C42.8041 12.9411 42.3522 12.8056 42.0363 12.5119C41.6751 12.2181 41.4716 11.7214 41.404 11.0215H47.0054C47.0281 10.8634 47.0503 10.0955 47.0503 9.84711C47.0508 8.15326 46.6891 6.82069 45.9666 5.87202ZM41.3818 8.94379C41.472 7.43081 41.8786 6.73048 42.6469 6.73048C43.4148 6.73048 43.8213 7.45343 43.8661 8.94379H41.3818Z" fill="#77838F"/>
</svg>
