<svg width="28" height="32" viewBox="0 0 28 32" fill="none" xmlns="http://www.w3.org/2000/svg">
<path d="M8.33092 18.7453C8.08482 20.0953 7.10748 26.3883 6.8192 28.1672C6.7981 28.2938 6.74888 28.343 6.60826 28.343H1.36295C0.828572 28.343 0.441853 27.8789 0.512166 27.3656L4.63248 1.21642C4.73795 0.541422 5.34264 0.0281406 6.03873 0.0281406C16.7473 0.0281406 17.6473 -0.232016 20.3825 0.829703C24.6083 2.46798 24.995 6.41955 23.4762 10.6945C21.9645 15.0961 18.3786 16.9875 13.6254 17.0438C10.5739 17.093 8.73873 16.5516 8.33092 18.7453ZM25.6067 8.62736C25.4801 8.53595 25.4309 8.5008 25.3958 8.71877C25.2551 9.52033 25.0372 10.3008 24.777 11.0813C21.9715 19.0828 14.195 18.3867 10.3981 18.3867C9.9692 18.3867 9.68795 18.6188 9.6317 19.0477C8.04263 28.9195 7.72623 30.9797 7.72623 30.9797C7.65592 31.4789 7.97232 31.8867 8.47154 31.8867H12.9364C13.5411 31.8867 14.0403 31.4438 14.1598 30.8391C14.209 30.4594 14.0825 31.268 15.1723 24.4195C15.4958 22.8727 16.1778 23.0344 17.2325 23.0344C22.2247 23.0344 26.12 21.0094 27.2801 15.1383C27.7372 12.6914 27.6036 10.118 25.6067 8.62736Z" fill="#77838F"/>
</svg>
